<?xml version="1.0" encoding="UTF-8"?>
<svg width="154px" height="22px" viewBox="0 0 154 22" version="1.1" xmlns="http://www.w3.org/2000/svg" xmlns:xlink="http://www.w3.org/1999/xlink">
    <!-- Generator: Sketch 59 (86127) - https://sketch.com -->
    <title>summergeeks</title>
    <desc>Created with Sketch.</desc>
    <g id="summergeeks-website" stroke="none" stroke-width="1" fill="none" fill-rule="evenodd">
        <g id="SummerCamp-20---Landing-Page-" transform="translate(-122.000000, -5425.000000)" fill="#FFFFFF" fill-rule="nonzero">
            <g id="Footer" transform="translate(0.000000, 5382.000000)">
                <g id="Group-31" transform="translate(120.000000, 40.000000)">
                    <path d="M8,20.192 C6.86399432,20.192 5.8160048,20.0720012 4.856,19.832 C3.8959952,19.5919988 3.08800328,19.2400023 2.432,18.776 L3.512,15.872 C4.1520032,16.2880021 4.87999592,16.6199988 5.696,16.868 C6.51200408,17.1160012 7.29599624,17.24 8.048,17.24 C8.51200232,17.24 8.87199872,17.1720007 9.128,17.036 C9.38400128,16.8999993 9.512,16.7120012 9.512,16.472 C9.512,16.263999 9.42000092,16.1040006 9.236,15.992 C9.0749992,15.8939995 8.77006444,15.7898754 8.32118827,15.6796252 L6.224,15.2 C5.023994,14.9279986 4.16000264,14.5280026 3.632,14 C3.10399736,13.4719974 2.84,12.7200049 2.84,11.744 C2.84,10.9919962 3.06399776,10.3240029 3.512,9.74 C3.96000224,9.15599708 4.58799596,8.7040016 5.396,8.384 C6.20400404,8.0639984 7.11999488,7.904 8.144,7.904 C8.99200424,7.904 9.8359958,8.02799876 10.676,8.276 C11.5160042,8.52400124 12.2799966,8.87199776 12.968,9.32 L11.864,12.104 C11.2239968,11.703998 10.5800032,11.3960011 9.932,11.18 C9.28399676,10.9639989 8.67200288,10.856 8.096,10.856 C7.63199768,10.856 7.27200128,10.9279993 7.016,11.072 C6.75999872,11.2160007 6.632,11.4239986 6.632,11.696 C6.632,11.8560008 6.7119992,11.9879995 6.872,12.092 C7.0320008,12.1960005 7.311998,12.2959995 7.712,12.392 L9.704,12.848 C10.9520062,13.1200014 11.8559972,13.5399972 12.416,14.108 C12.9760028,14.6760028 13.256,15.4479951 13.256,16.424 C13.256,17.5920058 12.7880047,18.5119966 11.852,19.184 C10.9159953,19.8560034 9.63200816,20.192 8,20.192 Z M26.912,8.192 L26.912,20 L22.76,20 L22.76,18.416 C22.3919982,18.9920029 21.9240028,19.4319985 21.356,19.736 C20.7879972,20.0400015 20.1360037,20.192 19.4,20.192 C17.8799924,20.192 16.7520037,19.7720042 16.016,18.932 C15.2799963,18.0919958 14.912,16.8160086 14.912,15.104 L14.912,8.192 L19.184,8.192 L19.184,15.2 C19.184,16.3520058 19.679995,16.928 20.672,16.928 C21.2480029,16.928 21.7199982,16.7200021 22.088,16.304 C22.4560018,15.8879979 22.64,15.3440034 22.64,14.672 L22.64,8.192 L26.912,8.192 Z M44.48,7.904 C45.8560069,7.904 46.8759967,8.31999584 47.54,9.152 C48.2040033,9.98400416 48.536,11.2639914 48.536,12.992 L48.536,20 L44.264,20 L44.264,13.112 C44.264,12.4239966 44.160001,11.9280015 43.952,11.624 C43.743999,11.3199985 43.4000024,11.168 42.92,11.168 C42.327997,11.168 41.8760016,11.3759979 41.564,11.792 C41.2519984,12.2080021 41.096,12.7999962 41.096,13.568 L41.096,20 L36.824,20 L36.824,13.112 C36.824,12.4239966 36.720001,11.9280015 36.512,11.624 C36.303999,11.3199985 35.9600024,11.168 35.48,11.168 C34.887997,11.168 34.4400015,11.3759979 34.136,11.792 C33.8319985,12.2080021 33.68,12.7999962 33.68,13.568 L33.68,20 L29.408,20 L29.408,8.192 L33.56,8.192 L33.56,9.68 C34.3440039,8.49599408 35.5439919,7.904 37.16,7.904 C38.8560085,7.904 39.999997,8.59999304 40.592,9.992 C41.0080021,9.33599672 41.5559966,8.82400184 42.236,8.456 C42.9160034,8.08799816 43.6639959,7.904 44.48,7.904 Z M66.008,7.904 C67.3840069,7.904 68.4039967,8.31999584 69.068,9.152 C69.7320033,9.98400416 70.064,11.2639914 70.064,12.992 L70.064,20 L65.792,20 L65.792,13.112 C65.792,12.4239966 65.688001,11.9280015 65.48,11.624 C65.271999,11.3199985 64.9280024,11.168 64.448,11.168 C63.855997,11.168 63.4040016,11.3759979 63.092,11.792 C62.7799984,12.2080021 62.624,12.7999962 62.624,13.568 L62.624,20 L58.352,20 L58.352,13.112 C58.352,12.4239966 58.248001,11.9280015 58.04,11.624 C57.831999,11.3199985 57.4880024,11.168 57.008,11.168 C56.415997,11.168 55.9680015,11.3759979 55.664,11.792 C55.3599985,12.2080021 55.208,12.7999962 55.208,13.568 L55.208,20 L50.936,20 L50.936,8.192 L55.088,8.192 L55.088,9.68 C55.8720039,8.49599408 57.0719919,7.904 58.688,7.904 C60.3840085,7.904 61.527997,8.59999304 62.12,9.992 C62.5360021,9.33599672 63.0839966,8.82400184 63.764,8.456 C64.4440034,8.08799816 65.1919959,7.904 66.008,7.904 Z M83.36,14.912 L76.064,14.912 C76.1920006,15.6800038 76.4719978,16.2319983 76.904,16.568 C77.3360022,16.904 77.951996,17.072 78.752,17.072 C79.3280029,17.072 79.912,16.976001 80.504,16.784 C81.096003,16.591999 81.6239977,16.3280017 82.088,15.992 L83.168,18.8 C82.575997,19.2320022 81.8640042,19.5719988 81.032,19.82 C80.1999958,20.0680012 79.3680042,20.192 78.536,20.192 C77.1759932,20.192 76.000005,19.9440025 75.008,19.448 C74.015995,18.9519975 73.2520027,18.2400046 72.716,17.312 C72.1799973,16.3839954 71.912,15.2960062 71.912,14.048 C71.912,12.8639941 72.1639975,11.8040047 72.668,10.868 C73.1720025,9.93199532 73.8759955,9.2040026 74.78,8.684 C75.6840045,8.1639974 76.7039943,7.904 77.84,7.904 C79.5360085,7.904 80.879995,8.4439946 81.872,9.524 C82.864005,10.6040054 83.36,12.0799906 83.36,13.952 L83.36,14.912 Z M77.96,10.784 C76.8239943,10.784 76.1760008,11.487993 76.016,12.896 L79.784,12.896 C79.6879995,11.487993 79.0800056,10.784 77.96,10.784 Z M94.4,11.384 L92.072,11.624 C91.1439954,11.7200005 90.4960018,11.967998 90.128,12.368 C89.7599982,12.768002 89.576,13.3359963 89.576,14.072 L89.576,20 L85.304,20 L85.304,8.192 L89.36,8.192 L89.36,10.232 C89.6320014,9.5119964 90.0799969,8.96400188 90.704,8.588 C91.2586694,8.25377611 91.9207872,8.04913562 92.6903693,7.97407408 L94.16,7.856 L94.4,11.384 Z M107.04,8.36 L107.04,19.328 C107.04,21.0240085 106.620004,22.3079956 105.78,23.18 C104.939996,24.0520044 103.696008,24.488 102.048,24.488 C100.09599,24.488 98.416007,23.9520054 97.008,22.88 L97.584,21.728 C98.3680039,22.2720027 99.0919967,22.6519989 99.756,22.868 C100.420003,23.0840011 101.191996,23.192 102.072,23.192 C103.240006,23.192 104.119997,22.8800031 104.712,22.256 C105.304003,21.6319969 105.6,20.7040062 105.6,19.472 L105.6,17.192 C105.263998,17.9760039 104.748003,18.5799979 104.052,19.004 C103.355997,19.4280021 102.512005,19.64 101.52,19.64 C100.495995,19.64 99.588004,19.4000024 98.796,18.92 C98.003996,18.4399976 97.3880022,17.7600044 96.948,16.88 C96.5079978,15.9999956 96.288,14.9920057 96.288,13.856 C96.288,12.7199943 96.5079978,11.7120044 96.948,10.832 C97.3880022,9.9519956 98.003996,9.2720024 98.796,8.792 C99.588004,8.3119976 100.495995,8.072 101.52,8.072 C102.496005,8.072 103.327997,8.27599796 104.016,8.684 C104.704003,9.09200204 105.223998,9.68799608 105.576,10.472 L105.576,8.36 L107.04,8.36 Z M101.712,18.344 C102.928006,18.344 103.875997,17.944004 104.556,17.144 C105.236003,16.344 105.576,15.248007 105.576,13.856 C105.576,12.463993 105.232003,11.364004 104.544,10.556 C103.855997,9.74799596 102.912006,9.344 101.712,9.344 C100.495994,9.344 99.5440034,9.743996 98.856,10.544 C98.1679966,11.344 97.824,12.447993 97.824,13.856 C97.824,15.264007 98.1679966,16.363996 98.856,17.156 C99.5440034,17.948004 100.495994,18.344 101.712,18.344 Z M120.456,14.36 L111.648,14.36 C111.696,15.8160073 112.079996,16.9319961 112.8,17.708 C113.520004,18.4840039 114.543993,18.872 115.872,18.872 C117.280007,18.872 118.551994,18.3920048 119.688,17.432 L120.264,18.584 C119.751997,19.0640024 119.100004,19.4479986 118.308,19.736 C117.515996,20.0240014 116.704004,20.168 115.872,20.168 C114.095991,20.168 112.696005,19.6320054 111.672,18.56 C110.647995,17.4879946 110.136,16.0160094 110.136,14.144 C110.136,12.943994 110.363998,11.8840046 110.82,10.964 C111.276002,10.0439954 111.915996,9.33200252 112.74,8.828 C113.564004,8.32399748 114.511995,8.072 115.584,8.072 C117.104008,8.072 118.295996,8.56799504 119.16,9.56 C120.024004,10.552005 120.456,11.9359911 120.456,13.712 L120.456,14.36 Z M115.584,9.272 C114.463994,9.272 113.568003,9.62399648 112.896,10.328 C112.223997,11.0320035 111.824001,12.0159937 111.696,13.28 L119.112,13.28 C119.08,11.9999936 118.760003,11.0120035 118.152,10.316 C117.543997,9.61999652 116.688006,9.272 115.584,9.272 Z M133.08,14.36 L124.272,14.36 C124.32,15.8160073 124.703996,16.9319961 125.424,17.708 C126.144004,18.4840039 127.167993,18.872 128.496,18.872 C129.904007,18.872 131.175994,18.3920048 132.312,17.432 L132.888,18.584 C132.375997,19.0640024 131.724004,19.4479986 130.932,19.736 C130.139996,20.0240014 129.328004,20.168 128.496,20.168 C126.719991,20.168 125.320005,19.6320054 124.296,18.56 C123.271995,17.4879946 122.76,16.0160094 122.76,14.144 C122.76,12.943994 122.987998,11.8840046 123.444,10.964 C123.900002,10.0439954 124.539996,9.33200252 125.364,8.828 C126.188004,8.32399748 127.135995,8.072 128.208,8.072 C129.728008,8.072 130.919996,8.56799504 131.784,9.56 C132.648004,10.552005 133.08,11.9359911 133.08,13.712 L133.08,14.36 Z M128.208,9.272 C127.087994,9.272 126.192003,9.62399648 125.52,10.328 C124.847997,11.0320035 124.448001,12.0159937 124.32,13.28 L131.736,13.28 C131.704,11.9999936 131.384003,11.0120035 130.776,10.316 C130.167997,9.61999652 129.312006,9.272 128.208,9.272 Z M145.92,20 L143.952,20 L137.592,14.336 L137.592,20 L136.128,20 L136.128,3.08 L137.592,3.08 L137.592,13.736 L143.376,8.36 L145.272,8.36 L139.224,13.952 L145.92,20 Z M151.536,20.168 C149.695991,20.168 148.192006,19.6480052 147.024,18.608 L147.576,17.48 C148.200003,17.9920026 148.823997,18.3559989 149.448,18.572 C150.072003,18.7880011 150.791996,18.896 151.608,18.896 C152.552005,18.896 153.275997,18.7280017 153.78,18.392 C154.284003,18.0559983 154.536,17.584003 154.536,16.976 C154.536,16.4639974 154.368002,16.0520016 154.032,15.74 C153.733332,15.4626653 153.276645,15.245383 152.661927,15.0881483 L150.456,14.576 C149.511995,14.3519989 148.772003,13.9640028 148.236,13.412 C147.699997,12.8599972 147.432,12.2080038 147.432,11.456 C147.432,10.447995 147.823996,9.63200312 148.608,9.008 C149.392004,8.38399688 150.439993,8.072 151.752,8.072 C152.568004,8.072 153.331996,8.20399868 154.044,8.468 C154.756004,8.73200132 155.343998,9.11199752 155.808,9.608 L155.256,10.736 C154.711997,10.2559976 154.156003,9.90400112 153.588,9.68 C153.019997,9.45599888 152.408003,9.344 151.752,9.344 C150.871996,9.344 150.184002,9.51999824 149.688,9.872 C149.191998,10.2240018 148.944,10.7119969 148.944,11.336 C148.944,11.8480026 149.099998,12.2639984 149.412,12.584 C149.724002,12.9040016 150.207997,13.1439992 150.864,13.304 L152.856,13.784 C154.968011,14.2640024 156.024,15.303992 156.024,16.904 C156.024,17.896005 155.620004,18.687997 154.812,19.28 C154.003996,19.872003 152.912007,20.168 151.536,20.168 Z" id="summergeeks"></path>
                </g>
            </g>
        </g>
    </g>
</svg>